<?xml version="1.0" encoding="UTF-8" standalone="no"?>
<!DOCTYPE svg PUBLIC "-//W3C//DTD SVG 20010904//EN"
              "http://www.w3.org/TR/2001/REC-SVG-20010904/DTD/svg10.dtd">

<svg xmlns="http://www.w3.org/2000/svg"
     width="11.1111in" height="11.1111in"
     viewBox="0 0 800 800">
  <path id="Auswahl #6"
        fill="none" stroke="black" stroke-width="1"
        d="M 210.00,29.66
           C 241.27,36.71 253.42,73.77 240.68,101.00
             232.70,118.04 219.07,125.58 201.00,127.71
             197.01,128.19 193.90,127.64 190.00,126.91
             168.65,122.86 155.78,105.74 152.87,85.00
             152.40,81.67 151.90,79.44 152.09,76.00
             153.19,56.60 163.32,38.77 182.00,31.46
             186.46,29.72 190.35,29.19 195.00,28.43
             200.45,27.77 204.67,28.46 210.00,29.66 Z
           M 359.00,29.75
           C 407.52,42.13 404.08,118.94 356.00,126.86
             346.80,128.37 341.01,128.43 332.00,125.48
             295.30,113.46 289.74,61.74 318.04,38.10
             325.26,32.07 333.03,30.09 342.00,28.44
             348.01,27.67 353.14,28.25 359.00,29.75 Z
           M 509.00,29.48
           C 547.80,39.45 553.25,89.49 530.70,113.91
             523.71,121.48 513.98,125.62 504.00,127.39
             464.67,134.35 440.12,92.10 453.46,58.00
             460.30,40.52 472.22,32.30 490.00,28.46
             496.44,27.57 502.70,27.86 509.00,29.48 Z
           M 192.00,38.00
           C 192.00,38.00 193.00,39.00 193.00,39.00
             193.00,39.00 193.00,38.00 193.00,38.00
             193.00,38.00 192.00,38.00 192.00,38.00 Z
           M 205.00,38.00
           C 205.00,38.00 206.00,39.00 206.00,39.00
             206.00,39.00 206.00,38.00 206.00,38.00
             206.00,38.00 205.00,38.00 205.00,38.00 Z
           M 353.00,38.00
           C 353.00,38.00 354.00,39.00 354.00,39.00
             354.00,39.00 354.00,38.00 354.00,38.00
             354.00,38.00 353.00,38.00 353.00,38.00 Z
           M 188.00,39.00
           C 188.00,39.00 189.00,40.00 189.00,40.00
             189.00,40.00 189.00,39.00 189.00,39.00
             189.00,39.00 188.00,39.00 188.00,39.00 Z
           M 209.00,39.00
           C 209.00,39.00 210.00,40.00 210.00,40.00
             210.00,40.00 210.00,39.00 210.00,39.00
             210.00,39.00 209.00,39.00 209.00,39.00 Z
           M 336.00,39.00
           C 336.00,39.00 337.00,40.00 337.00,40.00
             337.00,40.00 337.00,39.00 337.00,39.00
             337.00,39.00 336.00,39.00 336.00,39.00 Z
           M 185.00,40.00
           C 185.00,40.00 186.00,41.00 186.00,41.00
             186.00,41.00 186.00,40.00 186.00,40.00
             186.00,40.00 185.00,40.00 185.00,40.00 Z
           M 212.00,40.00
           C 212.00,40.00 213.00,41.00 213.00,41.00
             213.00,41.00 213.00,40.00 213.00,40.00
             213.00,40.00 212.00,40.00 212.00,40.00 Z
           M 183.00,41.00
           C 183.00,41.00 184.00,42.00 184.00,42.00
             184.00,42.00 184.00,41.00 184.00,41.00
             184.00,41.00 183.00,41.00 183.00,41.00 Z
           M 214.00,41.00
           C 214.00,41.00 215.00,42.00 215.00,42.00
             215.00,42.00 215.00,41.00 215.00,41.00
             215.00,41.00 214.00,41.00 214.00,41.00 Z
           M 362.00,41.00
           C 362.00,41.00 363.00,42.00 363.00,42.00
             363.00,42.00 363.00,41.00 363.00,41.00
             363.00,41.00 362.00,41.00 362.00,41.00 Z
           M 181.00,42.00
           C 181.00,42.00 182.00,43.00 182.00,43.00
             182.00,43.00 182.00,42.00 182.00,42.00
             182.00,42.00 181.00,42.00 181.00,42.00 Z
           M 216.00,42.00
           C 216.00,42.00 217.00,43.00 217.00,43.00
             217.00,43.00 217.00,42.00 217.00,42.00
             217.00,42.00 216.00,42.00 216.00,42.00 Z
           M 364.00,42.00
           C 364.00,42.00 365.00,43.00 365.00,43.00
             365.00,43.00 365.00,42.00 365.00,42.00
             365.00,42.00 364.00,42.00 364.00,42.00 Z
           M 179.00,43.00
           C 179.00,43.00 180.00,44.00 180.00,44.00
             180.00,44.00 180.00,43.00 180.00,43.00
             180.00,43.00 179.00,43.00 179.00,43.00 Z
           M 218.00,43.00
           C 218.00,43.00 219.00,44.00 219.00,44.00
             219.00,44.00 219.00,43.00 219.00,43.00
             219.00,43.00 218.00,43.00 218.00,43.00 Z
           M 366.00,43.00
           C 366.00,43.00 367.00,44.00 367.00,44.00
             367.00,44.00 367.00,43.00 367.00,43.00
             367.00,43.00 366.00,43.00 366.00,43.00 Z
           M 178.00,44.00
           C 178.00,44.00 179.00,45.00 179.00,45.00
             179.00,45.00 179.00,44.00 179.00,44.00
             179.00,44.00 178.00,44.00 178.00,44.00 Z
           M 326.00,44.00
           C 326.00,44.00 327.00,45.00 327.00,45.00
             327.00,45.00 327.00,44.00 327.00,44.00
             327.00,44.00 326.00,44.00 326.00,44.00 Z
           M 221.00,45.00
           C 221.00,45.00 222.00,46.00 222.00,46.00
             222.00,46.00 222.00,45.00 222.00,45.00
             222.00,45.00 221.00,45.00 221.00,45.00 Z
           M 175.00,46.00
           C 175.00,46.00 176.00,47.00 176.00,47.00
             176.00,47.00 176.00,46.00 176.00,46.00
             176.00,46.00 175.00,46.00 175.00,46.00 Z
           M 222.00,46.00
           C 222.00,46.00 223.00,47.00 223.00,47.00
             223.00,47.00 223.00,46.00 223.00,46.00
             223.00,46.00 222.00,46.00 222.00,46.00 Z
           M 174.00,47.00
           C 174.00,47.00 175.00,48.00 175.00,48.00
             175.00,48.00 175.00,47.00 175.00,47.00
             175.00,47.00 174.00,47.00 174.00,47.00 Z
           M 223.00,47.00
           C 223.00,47.00 224.00,48.00 224.00,48.00
             224.00,48.00 224.00,47.00 224.00,47.00
             224.00,47.00 223.00,47.00 223.00,47.00 Z
           M 322.00,47.00
           C 322.00,47.00 323.00,48.00 323.00,48.00
             323.00,48.00 323.00,47.00 323.00,47.00
             323.00,47.00 322.00,47.00 322.00,47.00 Z
           M 371.00,47.00
           C 371.00,47.00 372.00,48.00 372.00,48.00
             372.00,48.00 372.00,47.00 372.00,47.00
             372.00,47.00 371.00,47.00 371.00,47.00 Z
           M 173.00,48.00
           C 173.00,48.00 174.00,49.00 174.00,49.00
             174.00,49.00 174.00,48.00 174.00,48.00
             174.00,48.00 173.00,48.00 173.00,48.00 Z
           M 224.00,48.00
           C 224.00,48.00 225.00,49.00 225.00,49.00
             225.00,49.00 225.00,48.00 225.00,48.00
             225.00,48.00 224.00,48.00 224.00,48.00 Z
           M 321.00,48.00
           C 321.00,48.00 322.00,49.00 322.00,49.00
             322.00,49.00 322.00,48.00 322.00,48.00
             322.00,48.00 321.00,48.00 321.00,48.00 Z
           M 372.00,48.00
           C 372.00,48.00 373.00,49.00 373.00,49.00
             373.00,49.00 373.00,48.00 373.00,48.00
             373.00,48.00 372.00,48.00 372.00,48.00 Z
           M 172.00,49.00
           C 172.00,49.00 173.00,50.00 173.00,50.00
             173.00,50.00 173.00,49.00 173.00,49.00
             173.00,49.00 172.00,49.00 172.00,49.00 Z
           M 225.00,49.00
           C 225.00,49.00 226.00,50.00 226.00,50.00
             226.00,50.00 226.00,49.00 226.00,49.00
             226.00,49.00 225.00,49.00 225.00,49.00 Z
           M 320.00,49.00
           C 320.00,49.00 321.00,50.00 321.00,50.00
             321.00,50.00 321.00,49.00 321.00,49.00
             321.00,49.00 320.00,49.00 320.00,49.00 Z
           M 171.00,50.00
           C 171.00,50.00 172.00,51.00 172.00,51.00
             172.00,51.00 172.00,50.00 172.00,50.00
             172.00,50.00 171.00,50.00 171.00,50.00 Z
           M 226.00,50.00
           C 226.00,50.00 227.00,51.00 227.00,51.00
             227.00,51.00 227.00,50.00 227.00,50.00
             227.00,50.00 226.00,50.00 226.00,50.00 Z
           M 227.00,51.00
           C 227.00,51.00 228.00,52.00 228.00,52.00
             228.00,52.00 228.00,51.00 228.00,51.00
             228.00,51.00 227.00,51.00 227.00,51.00 Z
           M 169.00,53.00
           C 169.00,53.00 170.00,54.00 170.00,54.00
             170.00,54.00 170.00,53.00 170.00,53.00
             170.00,53.00 169.00,53.00 169.00,53.00 Z
           M 317.00,53.00
           C 317.00,53.00 318.00,54.00 318.00,54.00
             318.00,54.00 318.00,53.00 318.00,53.00
             318.00,53.00 317.00,53.00 317.00,53.00 Z
           M 168.00,54.00
           C 168.00,54.00 169.00,55.00 169.00,55.00
             169.00,55.00 169.00,54.00 169.00,54.00
             169.00,54.00 168.00,54.00 168.00,54.00 Z
           M 229.00,54.00
           C 229.00,54.00 230.00,55.00 230.00,55.00
             230.00,55.00 230.00,54.00 230.00,54.00
             230.00,54.00 229.00,54.00 229.00,54.00 Z
           M 377.00,54.00
           C 377.00,54.00 378.00,55.00 378.00,55.00
             378.00,55.00 378.00,54.00 378.00,54.00
             378.00,54.00 377.00,54.00 377.00,54.00 Z
           M 167.00,56.00
           C 167.00,56.00 168.00,57.00 168.00,57.00
             168.00,57.00 168.00,56.00 168.00,56.00
             168.00,56.00 167.00,56.00 167.00,56.00 Z
           M 230.00,56.00
           C 230.00,56.00 231.00,57.00 231.00,57.00
             231.00,57.00 231.00,56.00 231.00,56.00
             231.00,56.00 230.00,56.00 230.00,56.00 Z
           M 166.00,58.00
           C 166.00,58.00 167.00,59.00 167.00,59.00
             167.00,59.00 167.00,58.00 167.00,58.00
             167.00,58.00 166.00,58.00 166.00,58.00 Z
           M 231.00,58.00
           C 231.00,58.00 232.00,59.00 232.00,59.00
             232.00,59.00 232.00,58.00 232.00,58.00
             232.00,58.00 231.00,58.00 231.00,58.00 Z
           M 314.00,58.00
           C 314.00,58.00 315.00,59.00 315.00,59.00
             315.00,59.00 315.00,58.00 315.00,58.00
             315.00,58.00 314.00,58.00 314.00,58.00 Z
           M 165.00,60.00
           C 165.00,60.00 166.00,61.00 166.00,61.00
             166.00,61.00 166.00,60.00 166.00,60.00
             166.00,60.00 165.00,60.00 165.00,60.00 Z
           M 232.00,60.00
           C 232.00,60.00 233.00,61.00 233.00,61.00
             233.00,61.00 233.00,60.00 233.00,60.00
             233.00,60.00 232.00,60.00 232.00,60.00 Z
           M 164.00,62.00
           C 164.00,62.00 165.00,63.00 165.00,63.00
             165.00,63.00 165.00,62.00 165.00,62.00
             165.00,62.00 164.00,62.00 164.00,62.00 Z
           M 233.00,62.00
           C 233.00,62.00 234.00,63.00 234.00,63.00
             234.00,63.00 234.00,62.00 234.00,62.00
             234.00,62.00 233.00,62.00 233.00,62.00 Z
           M 163.00,65.00
           C 163.00,65.00 164.00,66.00 164.00,66.00
             164.00,66.00 164.00,65.00 164.00,65.00
             164.00,65.00 163.00,65.00 163.00,65.00 Z
           M 234.00,66.00
           C 234.00,66.00 235.00,67.00 235.00,67.00
             235.00,67.00 235.00,66.00 235.00,66.00
             235.00,66.00 234.00,66.00 234.00,66.00 Z
           M 310.00,70.00
           C 310.00,70.00 311.00,71.00 311.00,71.00
             311.00,71.00 311.00,70.00 311.00,70.00
             311.00,70.00 310.00,70.00 310.00,70.00 Z
           M 310.00,84.00
           C 310.00,84.00 311.00,85.00 311.00,85.00
             311.00,85.00 311.00,84.00 311.00,84.00
             311.00,84.00 310.00,84.00 310.00,84.00 Z
           M 383.00,84.00
           C 383.00,84.00 384.00,85.00 384.00,85.00
             384.00,85.00 384.00,84.00 384.00,84.00
             384.00,84.00 383.00,84.00 383.00,84.00 Z
           M 163.00,89.00
           C 163.00,89.00 164.00,90.00 164.00,90.00
             164.00,90.00 164.00,89.00 164.00,89.00
             164.00,89.00 163.00,89.00 163.00,89.00 Z
           M 234.00,89.00
           C 234.00,89.00 235.00,90.00 235.00,90.00
             235.00,90.00 235.00,89.00 235.00,89.00
             235.00,89.00 234.00,89.00 234.00,89.00 Z
           M 382.00,89.00
           C 382.00,89.00 383.00,90.00 383.00,90.00
             383.00,90.00 383.00,89.00 383.00,89.00
             383.00,89.00 382.00,89.00 382.00,89.00 Z
           M 164.00,92.00
           C 164.00,92.00 165.00,93.00 165.00,93.00
             165.00,93.00 165.00,92.00 165.00,92.00
             165.00,92.00 164.00,92.00 164.00,92.00 Z
           M 233.00,92.00
           C 233.00,92.00 234.00,93.00 234.00,93.00
             234.00,93.00 234.00,92.00 234.00,92.00
             234.00,92.00 233.00,92.00 233.00,92.00 Z
           M 312.00,92.00
           C 312.00,92.00 313.00,93.00 313.00,93.00
             313.00,93.00 313.00,92.00 313.00,92.00
             313.00,92.00 312.00,92.00 312.00,92.00 Z
           M 381.00,92.00
           C 381.00,92.00 382.00,93.00 382.00,93.00
             382.00,93.00 382.00,92.00 382.00,92.00
             382.00,92.00 381.00,92.00 381.00,92.00 Z
           M 165.00,95.00
           C 165.00,95.00 166.00,96.00 166.00,96.00
             166.00,96.00 166.00,95.00 166.00,95.00
             166.00,95.00 165.00,95.00 165.00,95.00 Z
           M 232.00,95.00
           C 232.00,95.00 233.00,96.00 233.00,96.00
             233.00,96.00 233.00,95.00 233.00,95.00
             233.00,95.00 232.00,95.00 232.00,95.00 Z
           M 313.00,95.00
           C 313.00,95.00 314.00,96.00 314.00,96.00
             314.00,96.00 314.00,95.00 314.00,95.00
             314.00,95.00 313.00,95.00 313.00,95.00 Z
           M 380.00,95.00
           C 380.00,95.00 381.00,96.00 381.00,96.00
             381.00,96.00 381.00,95.00 381.00,95.00
             381.00,95.00 380.00,95.00 380.00,95.00 Z
           M 166.00,97.00
           C 166.00,97.00 167.00,98.00 167.00,98.00
             167.00,98.00 167.00,97.00 167.00,97.00
             167.00,97.00 166.00,97.00 166.00,97.00 Z
           M 231.00,97.00
           C 231.00,97.00 232.00,98.00 232.00,98.00
             232.00,98.00 232.00,97.00 232.00,97.00
             232.00,97.00 231.00,97.00 231.00,97.00 Z
           M 167.00,99.00
           C 167.00,99.00 168.00,100.00 168.00,100.00
             168.00,100.00 168.00,99.00 168.00,99.00
             168.00,99.00 167.00,99.00 167.00,99.00 Z
           M 230.00,99.00
           C 230.00,99.00 231.00,100.00 231.00,100.00
             231.00,100.00 231.00,99.00 231.00,99.00
             231.00,99.00 230.00,99.00 230.00,99.00 Z
           M 315.00,99.00
           C 315.00,99.00 316.00,100.00 316.00,100.00
             316.00,100.00 316.00,99.00 316.00,99.00
             316.00,99.00 315.00,99.00 315.00,99.00 Z
           M 378.00,99.00
           C 378.00,99.00 379.00,100.00 379.00,100.00
             379.00,100.00 379.00,99.00 379.00,99.00
             379.00,99.00 378.00,99.00 378.00,99.00 Z
           M 168.00,101.00
           C 168.00,101.00 169.00,102.00 169.00,102.00
             169.00,102.00 169.00,101.00 169.00,101.00
             169.00,101.00 168.00,101.00 168.00,101.00 Z
           M 229.00,101.00
           C 229.00,101.00 230.00,102.00 230.00,102.00
             230.00,102.00 230.00,101.00 230.00,101.00
             230.00,101.00 229.00,101.00 229.00,101.00 Z
           M 169.00,102.00
           C 169.00,102.00 170.00,103.00 170.00,103.00
             170.00,103.00 170.00,102.00 170.00,102.00
             170.00,102.00 169.00,102.00 169.00,102.00 Z
           M 228.00,102.00
           C 228.00,102.00 229.00,103.00 229.00,103.00
             229.00,103.00 229.00,102.00 229.00,102.00
             229.00,102.00 228.00,102.00 228.00,102.00 Z
           M 171.00,105.00
           C 171.00,105.00 172.00,106.00 172.00,106.00
             172.00,106.00 172.00,105.00 172.00,105.00
             172.00,105.00 171.00,105.00 171.00,105.00 Z
           M 226.00,105.00
           C 226.00,105.00 227.00,106.00 227.00,106.00
             227.00,106.00 227.00,105.00 227.00,105.00
             227.00,105.00 226.00,105.00 226.00,105.00 Z
           M 172.00,106.00
           C 172.00,106.00 173.00,107.00 173.00,107.00
             173.00,107.00 173.00,106.00 173.00,106.00
             173.00,106.00 172.00,106.00 172.00,106.00 Z
           M 225.00,106.00
           C 225.00,106.00 226.00,107.00 226.00,107.00
             226.00,107.00 226.00,106.00 226.00,106.00
             226.00,106.00 225.00,106.00 225.00,106.00 Z
           M 320.00,106.00
           C 320.00,106.00 321.00,107.00 321.00,107.00
             321.00,107.00 321.00,106.00 321.00,106.00
             321.00,106.00 320.00,106.00 320.00,106.00 Z
           M 373.00,106.00
           C 373.00,106.00 374.00,107.00 374.00,107.00
             374.00,107.00 374.00,106.00 374.00,106.00
             374.00,106.00 373.00,106.00 373.00,106.00 Z
           M 173.00,107.00
           C 173.00,107.00 174.00,108.00 174.00,108.00
             174.00,108.00 174.00,107.00 174.00,107.00
             174.00,107.00 173.00,107.00 173.00,107.00 Z
           M 224.00,107.00
           C 224.00,107.00 225.00,108.00 225.00,108.00
             225.00,108.00 225.00,107.00 225.00,107.00
             225.00,107.00 224.00,107.00 224.00,107.00 Z
           M 372.00,107.00
           C 372.00,107.00 373.00,108.00 373.00,108.00
             373.00,108.00 373.00,107.00 373.00,107.00
             373.00,107.00 372.00,107.00 372.00,107.00 Z
           M 174.00,108.00
           C 174.00,108.00 175.00,109.00 175.00,109.00
             175.00,109.00 175.00,108.00 175.00,108.00
             175.00,108.00 174.00,108.00 174.00,108.00 Z
           M 223.00,108.00
           C 223.00,108.00 224.00,109.00 224.00,109.00
             224.00,109.00 224.00,108.00 224.00,108.00
             224.00,108.00 223.00,108.00 223.00,108.00 Z
           M 371.00,108.00
           C 371.00,108.00 372.00,109.00 372.00,109.00
             372.00,109.00 372.00,108.00 372.00,108.00
             372.00,108.00 371.00,108.00 371.00,108.00 Z
           M 175.00,109.00
           C 175.00,109.00 176.00,110.00 176.00,110.00
             176.00,110.00 176.00,109.00 176.00,109.00
             176.00,109.00 175.00,109.00 175.00,109.00 Z
           M 222.00,109.00
           C 222.00,109.00 223.00,110.00 223.00,110.00
             223.00,110.00 223.00,109.00 223.00,109.00
             223.00,109.00 222.00,109.00 222.00,109.00 Z
           M 323.00,109.00
           C 323.00,109.00 324.00,110.00 324.00,110.00
             324.00,110.00 324.00,109.00 324.00,109.00
             324.00,109.00 323.00,109.00 323.00,109.00 Z
           M 176.00,110.00
           C 176.00,110.00 177.00,111.00 177.00,111.00
             177.00,111.00 177.00,110.00 177.00,110.00
             177.00,110.00 176.00,110.00 176.00,110.00 Z
           M 219.00,111.00
           C 219.00,111.00 220.00,112.00 220.00,112.00
             220.00,112.00 220.00,111.00 220.00,111.00
             220.00,111.00 219.00,111.00 219.00,111.00 Z
           M 179.00,112.00
           C 179.00,112.00 180.00,113.00 180.00,113.00
             180.00,113.00 180.00,112.00 180.00,112.00
             180.00,112.00 179.00,112.00 179.00,112.00 Z
           M 218.00,112.00
           C 218.00,112.00 219.00,113.00 219.00,113.00
             219.00,113.00 219.00,112.00 219.00,112.00
             219.00,112.00 218.00,112.00 218.00,112.00 Z
           M 327.00,112.00
           C 327.00,112.00 328.00,113.00 328.00,113.00
             328.00,113.00 328.00,112.00 328.00,112.00
             328.00,112.00 327.00,112.00 327.00,112.00 Z
           M 216.00,113.00
           C 216.00,113.00 217.00,114.00 217.00,114.00
             217.00,114.00 217.00,113.00 217.00,113.00
             217.00,113.00 216.00,113.00 216.00,113.00 Z
           M 364.00,113.00
           C 364.00,113.00 365.00,114.00 365.00,114.00
             365.00,114.00 365.00,113.00 365.00,113.00
             365.00,113.00 364.00,113.00 364.00,113.00 Z
           M 214.00,114.00
           C 214.00,114.00 215.00,115.00 215.00,115.00
             215.00,115.00 215.00,114.00 215.00,114.00
             215.00,114.00 214.00,114.00 214.00,114.00 Z
           M 362.00,114.00
           C 362.00,114.00 363.00,115.00 363.00,115.00
             363.00,115.00 363.00,114.00 363.00,114.00
             363.00,114.00 362.00,114.00 362.00,114.00 Z
           M 185.00,115.00
           C 185.00,115.00 186.00,116.00 186.00,116.00
             186.00,116.00 186.00,115.00 186.00,115.00
             186.00,115.00 185.00,115.00 185.00,115.00 Z
           M 212.00,115.00
           C 212.00,115.00 213.00,116.00 213.00,116.00
             213.00,116.00 213.00,115.00 213.00,115.00
             213.00,115.00 212.00,115.00 212.00,115.00 Z
           M 187.00,116.00
           C 187.00,116.00 188.00,117.00 188.00,117.00
             188.00,117.00 188.00,116.00 188.00,116.00
             188.00,116.00 187.00,116.00 187.00,116.00 Z
           M 356.00,116.00
           C 356.00,116.00 357.00,117.00 357.00,117.00
             357.00,117.00 357.00,116.00 357.00,116.00
             357.00,116.00 356.00,116.00 356.00,116.00 Z
           M 191.00,117.00
           C 191.00,117.00 192.00,118.00 192.00,118.00
             192.00,118.00 192.00,117.00 192.00,117.00
             192.00,117.00 191.00,117.00 191.00,117.00 Z
           M 204.00,117.00
           C 204.00,117.00 205.00,118.00 205.00,118.00
             205.00,118.00 205.00,117.00 205.00,117.00
             205.00,117.00 204.00,117.00 204.00,117.00 Z
           M 339.00,117.00
           C 339.00,117.00 340.00,118.00 340.00,118.00
             340.00,118.00 340.00,117.00 340.00,117.00
             340.00,117.00 339.00,117.00 339.00,117.00 Z
           M 352.00,117.00
           C 352.00,117.00 353.00,118.00 353.00,118.00
             353.00,118.00 353.00,117.00 353.00,117.00
             353.00,117.00 352.00,117.00 352.00,117.00 Z
           M 393.00,171.60
           C 456.71,184.42 510.82,225.78 536.57,286.00
             543.41,301.99 550.79,328.66 551.16,346.00
             551.16,346.00 551.16,361.00 551.16,361.00
             551.16,361.00 551.16,374.00 551.16,374.00
             550.75,395.29 541.80,423.61 533.14,443.00
             533.14,443.00 522.66,462.00 522.66,462.00
             520.36,465.54 517.49,468.54 518.17,473.00
             518.17,473.00 521.58,486.00 521.58,486.00
             521.58,486.00 524.96,506.00 524.96,506.00
             524.96,506.00 524.96,515.00 524.96,515.00
             525.35,518.87 526.15,520.71 525.91,525.00
             524.76,545.22 521.77,564.93 514.58,584.00
             497.67,628.79 461.45,664.35 416.00,679.49
             393.16,687.09 376.55,687.27 353.00,687.00
             341.71,686.86 324.80,682.60 314.00,679.00
             265.39,662.79 230.09,625.27 214.00,577.00
             210.15,565.45 206.15,548.12 206.00,536.00
             206.00,536.00 206.00,513.00 206.00,513.00
             206.01,509.24 207.41,499.36 206.55,497.00
             205.66,494.53 196.81,484.91 194.42,482.00
             187.54,473.60 179.85,462.60 174.78,453.00
             161.57,427.98 152.33,399.48 152.00,371.00
             152.00,371.00 151.18,362.00 151.18,362.00
             150.80,356.64 153.22,334.14 154.25,328.00
             164.27,267.82 203.59,216.58 258.00,189.37
             271.36,182.69 290.38,175.39 305.00,172.45
             305.00,172.45 342.00,167.42 342.00,167.42
             354.21,165.94 380.55,169.09 393.00,171.60 Z" />
</svg>
